<?xml version="1.0" encoding="UTF-8" standalone="no"?>
<!DOCTYPE svg PUBLIC "-//W3C//DTD SVG 1.1//EN" "http://www.w3.org/Graphics/SVG/1.1/DTD/svg11.dtd">
<svg width="100%" height="100%" viewBox="0 0 2363 2363" version="1.1" xmlns="http://www.w3.org/2000/svg" xmlns:xlink="http://www.w3.org/1999/xlink" xml:space="preserve" xmlns:serif="http://www.serif.com/" style="fill-rule:evenodd;clip-rule:evenodd;stroke-linejoin:round;stroke-miterlimit:1.41421;">
    <g transform="matrix(6.08986,0,0,6.08986,1180.84,1664.62)">
        <circle cx="-0.002" cy="-57.383" r="57.383" style="fill:rgb(218,33,40);"/>
    </g>
    <g transform="matrix(6.08986,0,0,6.08986,666.57,1012.25)">
        <path d="M0,36.679C-6.207,36.679 -11.517,31.792 -13.622,24.916L-18.839,24.916C-20.186,24.916 -22.189,23.285 -22.189,18.356C-22.189,13.431 -20.186,11.796 -18.839,11.796L-13.626,11.796C-11.526,4.911 -6.212,0 0,0L50.184,0C38.003,8.409 29.06,21.18 25.617,36.056C14.504,36.442 5.979,36.679 0,36.679" style="fill:rgb(218,33,40);fill-rule:nonzero;"/>
    </g>
    <g transform="matrix(6.08986,0,0,6.08986,1157.76,1246.58)">
        <path d="M0,-35.527C-14.439,-34.375 -27.034,-26.681 -34.83,-15.415L-8.107,0C-5.956,-2.281 -3.155,-3.935 0,-4.688L0,-35.527" style="fill:white;fill-rule:nonzero;"/>
    </g>
    <g transform="matrix(6.08986,0,0,6.08986,1180.81,1365.86)">
        <circle cx="-0.002" cy="-8.342" r="8.342" style="fill:white;"/>
    </g>
    <g transform="matrix(6.08986,0,0,6.08986,1204.04,1246.59)">
        <path d="M0,-35.527L0,-4.683C3.154,-3.935 5.951,-2.281 8.102,0L34.825,-15.415C27.029,-26.681 14.439,-34.37 0,-35.527" style="fill:white;fill-rule:nonzero;"/>
    </g>
    <g transform="matrix(6.08986,0,0,6.08986,1155.37,1573.94)">
        <path d="M0,-26.723C-2.388,-27.355 -4.562,-28.512 -6.393,-30.063C-6.736,-30.361 -7.071,-30.667 -7.387,-30.983L-34.203,-15.485C-33.654,-14.709 -33.083,-13.956 -32.493,-13.218C-24.711,-3.475 -13.134,3.099 0.005,4.26L0,-26.723" style="fill:white;fill-rule:nonzero;"/>
    </g>
    <g transform="matrix(6.08986,0,0,6.08986,1251.35,1599.86)">
        <path d="M0,-35.239C-2.016,-33.218 -4.553,-31.727 -7.396,-30.974L-7.396,0C6.746,-1.245 19.08,-8.762 26.825,-19.75L0,-35.239" style="fill:white;fill-rule:nonzero;"/>
    </g>
    <g transform="matrix(6.08986,0,0,6.08986,1440.26,1192.78)">
        <path d="M0,39.852C5.134,29.064 6.499,13.793 -0.158,0L-26.899,15.429C-26.082,18.114 -25.966,21.31 -26.816,24.377L0,39.852" style="fill:white;fill-rule:nonzero;"/>
    </g>
    <g transform="matrix(6.08986,0,0,6.08986,972.732,1127.66)">
        <path d="M0,3.238L21.803,15.81C23.466,14.416 25.352,13.352 27.387,12.604L27.373,-12.572C16.586,-10.955 6.829,-5.324 0,3.238" style="fill:rgb(218,33,40);fill-rule:nonzero;"/>
    </g>
    <g transform="matrix(6.08986,0,0,6.08986,1222.62,1223.9)">
        <path d="M0,-28.349L-0.046,-3.122C1.988,-2.374 3.805,-1.389 5.468,0L27.327,-12.562C20.497,-21.12 10.788,-26.732 0,-28.349" style="fill:rgb(218,33,40);fill-rule:nonzero;"/>
    </g>
    <g transform="matrix(6.08986,0,0,6.08986,1447.2,1254.37)">
        <path d="M0,5.426C-0.404,1.57 -1.319,-2.184 -2.736,-5.789L-24.623,6.792C-24.446,7.833 -24.344,8.878 -24.344,9.942C-24.344,10.365 -24.367,10.792 -24.4,11.215C-18.212,9.528 -11.694,7.912 -5.096,6.522C-3.494,6.183 -1.779,5.816 0,5.426" style="fill:rgb(218,33,40);fill-rule:nonzero;"/>
    </g>
    <g transform="matrix(6.08986,0,0,6.08986,1213.52,1315.05)">
        <path d="M0,0C0,-2.964 -2.411,-5.375 -5.371,-5.375C-8.335,-5.375 -10.746,-2.964 -10.746,0C-10.746,2.964 -8.335,5.375 -5.371,5.375C-2.411,5.375 0,2.964 0,0" style="fill:rgb(218,33,40);fill-rule:nonzero;"/>
    </g>
    <g transform="matrix(6.08986,0,0,6.08986,922.3,1437.98)">
        <path d="M0,-40.219C-6.188,-27.122 -5.798,-12.372 0.088,0L26.769,-15.489C25.859,-18.495 25.822,-21.742 26.746,-24.855L0,-40.219" style="fill:white;fill-rule:nonzero;"/>
    </g>
    <g transform="matrix(6.08986,0,0,6.08986,931.721,1219.35)">
        <path d="M0,31.61L21.761,18.969C21.385,16.832 21.394,14.667 21.766,12.53L-0.07,0C-4.047,10.16 -4.019,21.422 0,31.61" style="fill:rgb(218,33,40);fill-rule:nonzero;"/>
    </g>
    <g transform="matrix(6.08986,0,0,6.08986,1666.57,739.012)">
        <path d="M0,-14.109C-7.633,-12.855 -10.179,-9.565 -10.077,-5.849C-9.965,-1.709 -7.169,0 -3.944,-0.144C-1.984,-0.232 -0.181,-1.105 0.92,-2.425C0.655,-4.436 0.599,-5.918 0.446,-8.018L0,-14.109ZM-3.926,-2.708C-6.815,-2.601 -7.438,-4.562 -7.484,-5.983C-7.471,-7.475 -6.978,-9.691 -2.379,-10.931C-2.263,-9.361 -2.146,-7.781 -2.146,-7.781L-2.049,-6.355C-1.979,-5.342 -1.919,-4.422 -1.817,-3.414C-2.421,-3.005 -3.117,-2.741 -3.926,-2.708" style="fill:rgb(218,33,40);fill-rule:nonzero;"/>
    </g>
    <g transform="matrix(6.08986,0,0,6.08986,1246.55,632.385)">
        <path d="M0,-6.026C-0.804,-8.953 -2.825,-10.342 -5.347,-10.11C-6.848,-9.97 -11.41,-8.697 -11.359,-0.214C-11.35,1.324 -11.243,2.848 -11.034,4.316L-2.871,1.18C0.683,-0.093 0.906,-2.718 0,-6.026M-3.8,-1.245C-3.8,-1.245 -6.369,-0.26 -8.73,0.641C-8.739,0.353 -8.762,0.065 -8.767,-0.228L-8.767,-0.349C-8.767,-5.38 -6.88,-7.355 -5.11,-7.522C-4.572,-7.568 -3.155,-7.698 -2.509,-5.338C-2.258,-4.423 -2.151,-3.736 -2.151,-3.206C-2.151,-1.84 -2.88,-1.58 -3.749,-1.269L-3.8,-1.245" style="fill:rgb(218,33,40);fill-rule:nonzero;"/>
    </g>
    <g transform="matrix(6.08986,0,0,6.08986,1849.27,556.039)">
        <path d="M0,21.059C-0.005,21.036 -4.279,-13.98 -4.279,-13.98L-20.395,-16.582C-19.099,-12.205 -18.128,-5.497 -17.58,-0.67C-17.58,-0.656 -15.169,21.719 -15.169,21.719C-14.709,25.798 -14.291,30.17 -14.328,34.564L-14.332,35.108L-14.978,33.528C-16.084,30.797 -16.813,26.959 -17.19,21.793C-17.19,21.761 -17.859,14.606 -17.859,14.606C-18.704,3.233 -24.967,-1.956 -38.551,-1.956C-40.869,-1.956 -46.635,-1.376 -50.138,-0.372L-49.195,12.585L-45.576,10.36C-42.612,8.538 -40.219,7.763 -37.585,7.763C-35.434,7.763 -34.026,8.571 -33.371,10.039C-36.042,10.471 -38.914,11.182 -42.082,12.599C-46.881,14.75 -50.022,17.849 -51.281,21.565C-51.285,21.459 -51.29,21.356 -51.295,21.254C-51.295,21.226 -51.848,9.375 -51.848,9.375C-52.136,1.7 -56.916,-3.085 -64.322,-3.085C-67.736,-3.085 -70.77,-2.105 -73.414,-0.214C-73.558,-0.684 -73.72,-1.134 -73.897,-1.506L-74.552,-2.881L-88.466,-3.517C-87.834,-1.018 -86.975,5.965 -86.789,8.701C-87.532,4.929 -89.502,0.901 -93.242,-1.706C-96.081,-3.68 -99.644,-4.725 -103.547,-4.725C-108.708,-4.725 -113.921,-2.556 -117.484,1.077C-121.006,4.664 -122.943,9.579 -123.143,15.359C-124.453,13.918 -126.195,12.692 -128.369,11.679L-134.762,8.631L-135.083,8.478C-136.616,7.763 -136.671,7.516 -136.639,7.103C-136.583,6.448 -135.11,5.746 -133.006,5.746C-130.381,5.746 -126.581,7.07 -123.5,9.036L-123.24,-2.402C-125.521,-3.429 -128.694,-4.27 -133.243,-4.27C-135.612,-4.27 -140.179,-3.94 -144.109,-1.715C-145.197,-1.102 -146.493,-0.159 -147.292,0.617L-147.106,-3.039C-150.567,-3.457 -154.6,-3.425 -159.38,0.975C-159.422,0.664 -159.738,-0.897 -160.068,-1.799L-175.092,-0.879C-173.973,3.145 -173.838,9.249 -174.14,14.69C-174.14,14.704 -174.428,20.423 -174.428,20.423C-174.428,20.409 -174.465,21.078 -174.465,21.078C-174.633,24.079 -174.804,27.136 -175.106,30.002C-176.356,26.118 -177.736,20.827 -178.777,16.418L-186.201,-16.981L-207.386,-13.947C-207.205,-13.52 -206.903,-12.442 -206.763,-11.383C-206.577,-9.985 -206.638,-7.095 -208.654,-1.222C-212.05,8.683 -216.952,23.312 -221.621,33.412C-222.276,34.82 -223.391,37.143 -223.391,37.143L-206.884,37.143C-206.675,34.555 -205.588,30.286 -204.524,27.187C-202.247,27.127 -196.254,26.969 -193.495,26.894C-192.984,29.291 -192.301,32.692 -192.157,34.671L-191.975,37.143L-158.767,37.143C-159.552,31.93 -159.25,24.72 -159.023,20.636C-158.762,15.99 -157.791,13.026 -155.868,11.029C-154.381,9.477 -152.602,9.105 -151.362,9.073C-151.529,15.284 -147.44,18.179 -143.807,20.004L-137.317,23.308C-134.985,24.529 -135.031,25.157 -135.064,25.57C-135.157,26.82 -137.034,27.298 -138.762,27.261C-142.14,27.187 -146.818,24.85 -152.096,19.4L-152.374,34.193C-148.193,36.544 -143.129,37.389 -138.52,37.389C-130.994,37.389 -122.915,34.114 -120.736,27.099C-117.033,34.188 -109.619,37.454 -102.315,37.454C-95.797,37.454 -90.914,35.354 -86.65,30.829C-86.705,32.014 -87.012,35.963 -87.11,37.143L-69.739,37.143C-70.756,32.492 -71.165,26.058 -71.346,21.254C-71.346,21.277 -71.616,11.228 -71.616,11.228C-71.648,10.271 -71.379,9.477 -70.831,8.901C-70.333,8.381 -69.646,8.074 -68.94,8.065C-68.127,8.055 -66.77,8.037 -66.663,10.871L-66.287,21.528C-66.106,26.327 -66.036,33.059 -66.672,37.143L-49.734,37.143C-50.017,35.684 -50.5,32.19 -50.616,31.229C-48.493,35.735 -43.94,38.04 -37.84,38.04C-34.231,38.04 -31.415,36.743 -29.352,35.456C-29.287,35.591 -28.484,37.143 -28.484,37.143L2.797,37.143C1.408,32.437 0.544,25.909 0,21.059M-189.564,34.541C-189.759,31.884 -190.772,27.187 -191.432,24.237L-206.396,24.632C-207.818,28.525 -208.668,31.563 -209.165,34.541L-219.256,34.541C-214.954,25.212 -209.537,9.421 -206.164,-0.405C-204.417,-5.492 -203.804,-9.473 -204.203,-11.769L-188.198,-14.059L-181.309,16.961C-179.985,22.555 -177.847,30.704 -176.207,34.541L-189.564,34.541ZM-150.182,6.434C-152.309,6.281 -155.389,6.759 -157.754,9.217C-159.938,11.493 -161.299,14.806 -161.615,20.469C-161.875,25.138 -162.042,30.239 -161.657,34.541L-173.099,34.541C-172.347,30.304 -172.091,25.245 -171.831,20.576L-171.543,14.857C-171.283,10.206 -171.264,5.793 -171.98,1.542L-162.001,0.929C-161.536,2.596 -161.308,4.85 -161.415,7.335C-157.048,0.775 -152.686,-0.693 -149.828,-0.553L-150.182,6.434ZM-138.548,34.787C-142.576,34.787 -147.027,33.974 -149.745,32.613L-149.61,25.152C-146.493,27.995 -141.912,29.863 -138.729,29.863C-134.892,29.863 -132.653,28.223 -132.472,25.793C-132.29,23.405 -134.07,22.086 -136.132,21.008C-137.67,20.204 -140.105,18.964 -142.66,17.681C-146.418,15.795 -149.071,13.514 -148.751,8.724C-148.537,5.5 -146.172,2.457 -142.809,0.552C-139.863,-1.116 -136.142,-1.673 -133.215,-1.673C-129.656,-1.673 -127.301,-1.148 -125.837,-0.609L-125.939,4.919C-127.881,3.869 -130.413,3.145 -133.034,3.145C-136.146,3.145 -139.027,4.343 -139.227,6.866C-139.44,9.514 -137.029,10.411 -135.877,10.968C-134.627,11.572 -131.965,12.859 -129.447,14.035C-126.92,15.205 -122.66,17.612 -122.771,23.424C-122.924,31.586 -131.561,34.787 -138.548,34.787M-102.315,34.857C-109.753,34.857 -120.299,30.653 -120.56,16.864C-120.82,3.126 -110.938,-2.124 -103.547,-2.124C-100.318,-2.124 -97.256,-1.334 -94.724,0.431C-91.472,2.694 -89.149,6.634 -88.513,13.421L-109.052,21.138C-107.528,25.979 -104.443,29.463 -99.76,29.556C-95.333,29.649 -92.652,27.6 -90.901,26.23L-88.615,29.133C-91.839,32.548 -95.793,34.857 -102.315,34.857M-86.529,27.503L-86.529,27.577L-90.464,22.587C-93.59,25.259 -95.918,27.038 -99.709,26.959C-102.687,26.899 -104.527,24.892 -105.66,22.643C-102.385,21.412 -90.18,16.827 -86.682,15.517C-86.645,18.072 -86.594,21.51 -86.594,21.51L-86.589,21.538C-86.515,23.558 -86.496,25.542 -86.529,27.503M-63.801,34.541C-63.448,30.304 -63.513,26.063 -63.685,21.394L-64.062,10.727C-64.182,7.53 -65.748,5.426 -68.926,5.468C-71.681,5.5 -74.347,7.772 -74.213,11.34L-73.948,21.394C-73.771,26.063 -73.52,30.304 -72.847,34.541L-84.285,34.541C-83.927,30.304 -83.816,26.063 -83.988,21.394L-84.127,12.678C-84.299,8.032 -84.55,3.623 -85.33,-0.772L-76.248,-0.354C-75.62,0.966 -75.105,3.953 -75.007,4.85C-71.634,0.585 -67.69,-0.484 -64.363,-0.484C-58.305,-0.484 -54.682,3.252 -54.445,9.542L-53.892,21.394C-53.715,26.063 -53.464,30.304 -52.791,34.541L-63.801,34.541ZM-26.885,34.541C-27.401,33.631 -27.861,32.432 -28.177,31.238C-29.924,33.036 -33.162,35.443 -37.794,35.443C-43.94,35.443 -48.819,32.623 -49.278,26.155C-49.697,20.311 -45.311,16.873 -41.051,14.968C-37.269,13.277 -33.896,12.645 -30.286,12.241C-30.598,6.685 -33.822,5.161 -37.543,5.161C-41.144,5.161 -44.075,6.411 -46.909,8.153L-47.378,1.663C-44.549,1.031 -41.013,0.645 -38.598,0.645C-24.628,0.645 -21.078,6.429 -20.451,14.875L-19.782,22.03C-19.443,26.699 -18.76,31.173 -17.389,34.541L-26.885,34.541ZM-11.731,34.541C-11.689,30.304 -12.061,26.063 -12.586,21.394L-14.997,-0.999C-15.522,-5.645 -15.931,-9.074 -16.943,-13.39L-6.63,-11.722L-2.583,21.394C-2.058,26.063 -1.561,30.304 -0.562,34.541L-11.731,34.541" style="fill:rgb(218,33,40);fill-rule:nonzero;"/>
    </g>
    <g transform="matrix(6.08986,0,0,6.08986,605.704,541.88)">
        <path d="M0,21.074L11.675,20.684L7.326,0L0,21.074ZM3.721,18.347C4.576,15.885 5.487,13.065 6.769,8.92C7.508,13.032 8.065,16.098 8.502,18.184C6.667,18.249 5.84,18.277 3.721,18.347" style="fill:rgb(218,33,40);fill-rule:nonzero;"/>
    </g>
    <g transform="matrix(6.08986,0,0,6.08986,2034.9,2113.07)">
        <path d="M0,-306.072C-42.621,-325.166 -89.521,-335.987 -140.198,-335.987C-190.874,-335.987 -237.779,-325.166 -280.4,-306.072C-290.23,-266.294 -295.508,-227.706 -295.634,-203.701C-295.768,-178.037 -292.144,-152.964 -284.864,-129.177C-277.84,-106.217 -267.382,-84.461 -253.784,-64.497C-240.422,-44.887 -223.948,-26.889 -204.812,-11.005C-186.814,3.931 -162.433,20.326 -140.198,29.915C-117.967,20.326 -93.586,3.931 -75.588,-11.005C-56.452,-26.889 -39.973,-44.887 -26.611,-64.497C-13.018,-84.461 -2.56,-106.217 4.465,-129.177C11.745,-152.964 15.368,-178.037 15.234,-203.701C15.108,-227.706 9.831,-266.294 0,-306.072M4.293,-180.755L-106.027,-180.76C-92.383,-171.343 -82.798,-156.457 -80.452,-139.263L-59.42,-144.276C-54.723,-145.331 -52.781,-148.499 -52.294,-151.403L0.632,-154.985C-0.906,-147.217 -2.82,-139.579 -5.106,-132.108C-11.838,-110.11 -21.854,-89.26 -34.886,-70.138C-47.722,-51.294 -63.564,-33.993 -81.981,-18.708C-98.794,-4.752 -117.939,7.564 -138.748,17.999C-118.204,4.944 -101.094,-9.035 -85.614,-24.446C-68.661,-41.338 -54.654,-60 -43.578,-79.922C-32.326,-100.15 -24.307,-122.668 -19.592,-145.173C-19.22,-146.957 -18.858,-148.801 -18.518,-150.683L-24.762,-150.255C-28.553,-128.852 -35.624,-105.808 -48.005,-82.514C-73.911,-33.765 -109.052,-5.37 -140.212,15.011C-170.024,-4.487 -203.483,-31.335 -229.012,-76.312C-230.838,-75.759 -231.948,-75.406 -233.96,-74.872C-223.367,-56.841 -210.322,-39.902 -194.805,-24.446C-179.329,-9.035 -162.219,4.944 -141.675,17.999C-162.484,7.564 -181.606,-4.752 -198.419,-18.708C-216.835,-33.993 -232.678,-51.294 -245.514,-70.138C-246.532,-71.629 -247.521,-73.134 -248.501,-74.649C-229.751,-77.812 -209.026,-85.771 -189.89,-96.679C-194.661,-103.56 -198.052,-111.467 -199.627,-120.02C-204.422,-114.129 -210.136,-108.15 -216.659,-103.281C-227.237,-95.383 -240.014,-87.546 -253.835,-83.295C-262.876,-98.7 -270.077,-115.054 -275.294,-132.108C-282.221,-154.734 -285.752,-178.804 -285.622,-203.65C-285.506,-225.936 -279.889,-266.708 -271.884,-298.848C-264.799,-301.905 -257.64,-304.701 -250.411,-307.243C-257.877,-274.903 -264.088,-239.534 -265.547,-216.514C-267.206,-190.26 -264.92,-164.685 -260.832,-145.173C-256.957,-126.682 -250.852,-108.178 -242.559,-90.951C-241.012,-91.685 -239.335,-92.503 -237.802,-93.32C-259.744,-140.503 -261.003,-185.763 -258.68,-217.313C-256.985,-240.366 -250.801,-277.3 -243.149,-309.71C-210.062,-320.507 -175.566,-325.979 -140.198,-325.979C-104.838,-325.979 -70.357,-320.507 -37.278,-309.719C-29.622,-277.31 -23.443,-240.37 -21.743,-217.313C-21.009,-207.371 -20.637,-196.063 -21.148,-183.77L-14.737,-183.775C-14.179,-194.288 -14.17,-205.341 -14.876,-216.514C-16.335,-239.539 -22.546,-274.912 -30.017,-307.257C-22.774,-304.706 -15.605,-301.909 -8.511,-298.848C-0.511,-266.708 5.11,-225.936 5.227,-203.65C5.264,-195.938 4.948,-188.3 4.293,-180.755" style="fill:rgb(218,33,40);fill-rule:nonzero;"/>
    </g>
</svg>
